<svg width="16" height="17" viewBox="0 0 16 17" fill="none" xmlns="http://www.w3.org/2000/svg">
<g id="SVG">
<path id="Polygon 2" d="M8.16646 10.75C8.1482 10.7774 8.12345 10.7999 8.0944 10.8155C8.06535 10.8311 8.03291 10.8392 7.99996 10.8392C7.96701 10.8392 7.93456 10.8311 7.90552 10.8155C7.87647 10.7999 7.85172 10.7774 7.83346 10.75L5.20746 6.811C5.18738 6.78091 5.17584 6.74593 5.17407 6.7098C5.1723 6.67367 5.18036 6.63774 5.19739 6.60582C5.21442 6.57391 5.23979 6.54721 5.2708 6.52858C5.3018 6.50994 5.33728 6.50007 5.37346 6.5H10.6265C10.6626 6.50007 10.6981 6.50994 10.7291 6.52858C10.7601 6.54721 10.7855 6.57391 10.8025 6.60582C10.8196 6.63774 10.8276 6.67367 10.8258 6.7098C10.8241 6.74593 10.8125 6.78091 10.7925 6.811L8.16646 10.75Z" fill="white"/>
</g>
</svg>
