<svg width="13" height="13" viewBox="0 0 13 13" fill="none" xmlns="http://www.w3.org/2000/svg">
<g id="image">
<path id="Vector" d="M10.2917 1.625H2.70833C2.11002 1.625 1.625 2.11002 1.625 2.70833V10.2917C1.625 10.89 2.11002 11.375 2.70833 11.375H10.2917C10.89 11.375 11.375 10.89 11.375 10.2917V2.70833C11.375 2.11002 10.89 1.625 10.2917 1.625Z" stroke="white" stroke-linecap="round" stroke-linejoin="round"/>
<path id="Vector_2" d="M4.60449 5.41699C5.05322 5.41699 5.41699 5.05322 5.41699 4.60449C5.41699 4.15576 5.05322 3.79199 4.60449 3.79199C4.15576 3.79199 3.79199 4.15576 3.79199 4.60449C3.79199 5.05322 4.15576 5.41699 4.60449 5.41699Z" stroke="white" stroke-linecap="round" stroke-linejoin="round"/>
<path id="Vector_3" d="M11.3747 8.12533L8.66634 5.41699L2.70801 11.3753" stroke="white" stroke-linecap="round" stroke-linejoin="round"/>
</g>
</svg>
