<svg width="19" height="21" viewBox="0 0 19 21" fill="none" xmlns="http://www.w3.org/2000/svg">
<g id="Img">
<path id="Vector" d="M9.63379 6.4082C7.14941 6.4082 5.14551 8.41211 5.14551 10.8965C5.14551 13.3809 7.14941 15.3848 9.63379 15.3848C12.1182 15.3848 14.1221 13.3809 14.1221 10.8965C14.1221 8.41211 12.1182 6.4082 9.63379 6.4082ZM9.63379 13.8145C8.02832 13.8145 6.71582 12.5059 6.71582 10.8965C6.71582 9.28711 8.02441 7.97852 9.63379 7.97852C11.2432 7.97852 12.5518 9.28711 12.5518 10.8965C12.5518 12.5059 11.2393 13.8145 9.63379 13.8145ZM15.3525 6.22461C15.3525 6.80664 14.8838 7.27148 14.3057 7.27148C13.7236 7.27148 13.2588 6.80273 13.2588 6.22461C13.2588 5.64648 13.7275 5.17773 14.3057 5.17773C14.8838 5.17773 15.3525 5.64648 15.3525 6.22461ZM18.3252 7.28711C18.2588 5.88477 17.9385 4.64258 16.9111 3.61914C15.8877 2.5957 14.6455 2.27539 13.2432 2.20508C11.7979 2.12305 7.46582 2.12305 6.02051 2.20508C4.62207 2.27148 3.37988 2.5918 2.35254 3.61523C1.3252 4.63867 1.00879 5.88086 0.938477 7.2832C0.856445 8.72852 0.856445 13.0605 0.938477 14.5059C1.00488 15.9082 1.3252 17.1504 2.35254 18.1738C3.37988 19.1973 4.61816 19.5176 6.02051 19.5879C7.46582 19.6699 11.7979 19.6699 13.2432 19.5879C14.6455 19.5215 15.8877 19.2012 16.9111 18.1738C17.9346 17.1504 18.2549 15.9082 18.3252 14.5059C18.4072 13.0605 18.4072 8.73242 18.3252 7.28711ZM16.458 16.0566C16.1533 16.8223 15.5635 17.4121 14.7939 17.7207C13.6416 18.1777 10.9072 18.0723 9.63379 18.0723C8.36035 18.0723 5.62207 18.1738 4.47363 17.7207C3.70801 17.416 3.11816 16.8262 2.80957 16.0566C2.35254 14.9043 2.45801 12.1699 2.45801 10.8965C2.45801 9.62305 2.35645 6.88477 2.80957 5.73633C3.11426 4.9707 3.7041 4.38086 4.47363 4.07227C5.62598 3.61523 8.36035 3.7207 9.63379 3.7207C10.9072 3.7207 13.6455 3.61914 14.7939 4.07227C15.5596 4.37695 16.1494 4.9668 16.458 5.73633C16.915 6.88867 16.8096 9.62305 16.8096 10.8965C16.8096 12.1699 16.915 14.9082 16.458 16.0566Z" fill="white"/>
</g>
</svg>
