<svg width="18" height="21" viewBox="0 0 18 21" fill="none" xmlns="http://www.w3.org/2000/svg">
<g id="Img">
<path id="Vector" d="M4.29707 18.4H0.668945V6.71641H4.29707V18.4ZM2.48105 5.12266C1.3209 5.12266 0.379883 4.16172 0.379883 3.00156C0.379883 2.4443 0.601256 1.90986 0.995302 1.51581C1.38935 1.12176 1.92379 0.900391 2.48105 0.900391C3.03832 0.900391 3.57276 1.12176 3.96681 1.51581C4.36085 1.90986 4.58223 2.4443 4.58223 3.00156C4.58223 4.16172 3.64082 5.12266 2.48105 5.12266ZM17.876 18.4H14.2557V12.7125C14.2557 11.357 14.2283 9.61875 12.3693 9.61875C10.483 9.61875 10.1939 11.0914 10.1939 12.6148V18.4H6.56973V6.71641H10.0494V8.31016H10.1002C10.5846 7.39219 11.7678 6.42344 13.533 6.42344C17.2049 6.42344 17.8799 8.84141 17.8799 11.982V18.4H17.876Z" fill="white"/>
</g>
</svg>
