<svg width="17" height="17" viewBox="0 0 17 17" fill="none" xmlns="http://www.w3.org/2000/svg">
<g id="SVG">
<path id="Polygon 2" d="M10.7197 8.27486C10.7472 8.29312 10.7697 8.31787 10.7852 8.34692C10.8008 8.37597 10.8089 8.40841 10.8089 8.44136C10.8089 8.47432 10.8008 8.50676 10.7852 8.53581C10.7697 8.56486 10.7472 8.58961 10.7197 8.60786L6.78073 11.2339C6.75063 11.2539 6.71566 11.2655 6.67953 11.2673C6.6434 11.269 6.60746 11.261 6.57555 11.2439C6.54364 11.2269 6.51694 11.2015 6.49831 11.1705C6.47967 11.1395 6.46979 11.104 6.46973 11.0679V5.81486C6.46979 5.77869 6.47967 5.74321 6.49831 5.71221C6.51694 5.6812 6.54364 5.65583 6.57555 5.6388C6.60746 5.62176 6.6434 5.6137 6.67953 5.61547C6.71566 5.61725 6.75063 5.62879 6.78073 5.64886L10.7197 8.27486Z" fill="black"/>
</g>
</svg>
