<svg width="16" height="17" viewBox="0 0 16 17" fill="none" xmlns="http://www.w3.org/2000/svg">
<g id="SVG">
<path id="Polygon 2" d="M8.15669 10.5996C8.13844 10.627 8.11368 10.6495 8.08464 10.6651C8.05559 10.6807 8.02315 10.6888 7.99019 10.6888C7.95724 10.6888 7.9248 10.6807 7.89575 10.6651C7.8667 10.6495 7.84195 10.627 7.82369 10.5996L5.19769 6.66061C5.17762 6.63052 5.16608 6.59554 5.1643 6.55941C5.16253 6.52328 5.17059 6.48735 5.18762 6.45543C5.20466 6.42352 5.23003 6.39682 5.26103 6.37819C5.29204 6.35955 5.32752 6.34968 5.36369 6.34961H10.6167C10.6529 6.34968 10.6883 6.35955 10.7194 6.37819C10.7504 6.39682 10.7757 6.42352 10.7928 6.45543C10.8098 6.48735 10.8179 6.52328 10.8161 6.55941C10.8143 6.59554 10.8028 6.63052 10.7827 6.66061L8.15669 10.5996Z" fill="black"/>
</g>
</svg>
