<svg width="17" height="17" viewBox="0 0 17 17" fill="none" xmlns="http://www.w3.org/2000/svg">
<g id="SVG">
<path id="Rectangle 793" d="M7.52051 9.34961H9.52051C10.5814 9.34961 11.5988 9.77104 12.3489 10.5212C13.0991 11.2713 13.5205 12.2887 13.5205 13.3496C13.5205 13.6148 13.4152 13.8692 13.2276 14.0567C13.0401 14.2443 12.7857 14.3496 12.5205 14.3496H4.52051C4.25529 14.3496 4.00094 14.2443 3.8134 14.0567C3.62586 13.8692 3.52051 13.6148 3.52051 13.3496C3.52051 12.2887 3.94194 11.2713 4.69208 10.5212C5.44223 9.77104 6.45964 9.34961 7.52051 9.34961Z" fill="#151515"/>
<path id="Ellipse 64" d="M8.52051 8.34961C10.1774 8.34961 11.5205 7.00646 11.5205 5.34961C11.5205 3.69276 10.1774 2.34961 8.52051 2.34961C6.86365 2.34961 5.52051 3.69276 5.52051 5.34961C5.52051 7.00646 6.86365 8.34961 8.52051 8.34961Z" fill="#151515"/>
</g>
</svg>
