<svg width="25" height="25" viewBox="0 0 25 25" fill="none" xmlns="http://www.w3.org/2000/svg">
<g id="SVG">
<path id="Rectangle 591" d="M18.1006 5.19043H14.1006C13.5483 5.19043 13.1006 5.63814 13.1006 6.19043V10.1904C13.1006 10.7427 13.5483 11.1904 14.1006 11.1904H18.1006C18.6529 11.1904 19.1006 10.7427 19.1006 10.1904V6.19043C19.1006 5.63814 18.6529 5.19043 18.1006 5.19043Z" fill="white"/>
<path id="Rectangle 594" d="M10.1006 5.19043H6.10059C5.5483 5.19043 5.10059 5.63814 5.10059 6.19043V10.1904C5.10059 10.7427 5.5483 11.1904 6.10059 11.1904H10.1006C10.6529 11.1904 11.1006 10.7427 11.1006 10.1904V6.19043C11.1006 5.63814 10.6529 5.19043 10.1006 5.19043Z" fill="white"/>
<path id="Rectangle 592" d="M18.1006 13.1904H14.1006C13.5483 13.1904 13.1006 13.6381 13.1006 14.1904V18.1904C13.1006 18.7427 13.5483 19.1904 14.1006 19.1904H18.1006C18.6529 19.1904 19.1006 18.7427 19.1006 18.1904V14.1904C19.1006 13.6381 18.6529 13.1904 18.1006 13.1904Z" fill="white"/>
<path id="Rectangle 593" d="M10.1006 13.1904H6.10059C5.5483 13.1904 5.10059 13.6381 5.10059 14.1904V18.1904C5.10059 18.7427 5.5483 19.1904 6.10059 19.1904H10.1006C10.6529 19.1904 11.1006 18.7427 11.1006 18.1904V14.1904C11.1006 13.6381 10.6529 13.1904 10.1006 13.1904Z" fill="white"/>
</g>
</svg>
