<svg width="24" height="21" viewBox="0 0 24 21" fill="none" xmlns="http://www.w3.org/2000/svg">
<g id="Img">
<path id="Vector" d="M22.3505 5.74738C22.1051 4.82355 21.3822 4.09598 20.4644 3.84906C18.8007 3.40039 12.1296 3.40039 12.1296 3.40039C12.1296 3.40039 5.45848 3.40039 3.79477 3.84906C2.87691 4.09602 2.15402 4.82355 1.90867 5.74738C1.46289 7.42188 1.46289 10.9155 1.46289 10.9155C1.46289 10.9155 1.46289 14.4092 1.90867 16.0837C2.15402 17.0075 2.87691 17.7048 3.79477 17.9517C5.45848 18.4004 12.1296 18.4004 12.1296 18.4004C12.1296 18.4004 18.8007 18.4004 20.4644 17.9517C21.3822 17.7048 22.1051 17.0075 22.3505 16.0837C22.7963 14.4092 22.7963 10.9155 22.7963 10.9155C22.7963 10.9155 22.7963 7.42188 22.3505 5.74738ZM9.94773 14.0875V7.74355L15.5235 10.9156L9.94773 14.0875Z" fill="white"/>
</g>
</svg>
